<?xml version="1.0" encoding="utf-8"?>
<!-- Generator: Adobe Illustrator 27.5.0, SVG Export Plug-In . SVG Version: 6.00 Build 0)  -->
<svg version="1.1" xmlns="http://www.w3.org/2000/svg" xmlns:xlink="http://www.w3.org/1999/xlink" x="0px" y="0px"
	 viewBox="0 0 500 500" style="enable-background:new 0 0 500 500;" xml:space="preserve">
<g id="BACKGROUND">
	<rect style="fill:#FFFFFF;" width="500" height="500"/>
</g>
<g id="OBJECTS">
	<g>
		<path style="fill:#FFDEDE;" d="M181.547,77.875c16.575-0.218,40.363,7.377,40.291,27.332c-0.027,7.567-4.588,14.572-10.434,19.663
			c-5.845,5.092-12.942,8.624-19.771,12.424c-12.227,6.804-23.867,14.647-36.688,20.354c-12.821,5.707-27.242,9.214-41.112,6.672
			c-13.87-2.542-26.885-12.162-30.031-25.364c-2.815-11.813,2.65-24.441,11.571-33.043C115.75,86.266,153.705,78.242,181.547,77.875
			z"/>
		<path style="fill:#FFDEDE;" d="M63.477,417.737H427.55c23.569-25.491,36.334-59.091,42.092-93.543
			c13.964-83.548-1.326-233.811-115.774-227.317c-21.038,1.194-41.311,8.754-58.928,20.23
			c-17.924,11.676-28.031,26.954-42.538,41.927c-27.751,28.643-67.551,45.504-107.366,44.175
			c-17.939-0.598-36.23-4.574-53.594,0.007c-14.325,3.779-26.698,13.169-36.5,24.355c-40.582,46.315-34.518,117.894-5.876,168.993
			C53.237,404.007,58.072,411.109,63.477,417.737z"/>
	</g>
	<g>
		<path style="fill:none;stroke:#222221;stroke-linecap:round;stroke-linejoin:round;stroke-miterlimit:10;" d="M112.012,103.455
			c0-2.757,2.235-4.992,4.992-4.992c2.757,0,4.992,2.235,4.992,4.992"/>
		
			<circle style="fill:none;stroke:#222221;stroke-linecap:round;stroke-linejoin:round;stroke-miterlimit:10;" cx="50.617" cy="197.198" r="5.786"/>
		
			<circle style="fill:none;stroke:#222221;stroke-linecap:round;stroke-linejoin:round;stroke-miterlimit:10;" cx="152.449" cy="205.208" r="2.708"/>
		<path style="fill:none;stroke:#222221;stroke-linecap:round;stroke-linejoin:round;stroke-miterlimit:10;" d="M327.958,138.326
			c0,1.953-1.583,3.536-3.536,3.536c-1.953,0-3.536-1.583-3.536-3.536"/>
		<path style="fill:none;stroke:#222221;stroke-linecap:round;stroke-linejoin:round;stroke-miterlimit:10;" d="M417.414,177.734
			c0,2.351-1.906,4.257-4.257,4.257c-2.351,0-4.257-1.906-4.257-4.257c0-2.351,1.906-4.257,4.257-4.257
			C415.508,173.477,417.414,175.383,417.414,177.734z"/>
		
			<circle style="fill:none;stroke:#222221;stroke-linecap:round;stroke-linejoin:round;stroke-miterlimit:10;" cx="405.89" cy="202.501" r="8.69"/>
		
			<circle style="fill:none;stroke:#222221;stroke-linecap:round;stroke-linejoin:round;stroke-miterlimit:10;" cx="355.801" cy="208.087" r="3.303"/>
		<path style="fill:none;stroke:#222221;stroke-linecap:round;stroke-linejoin:round;stroke-miterlimit:10;" d="M261.572,93.37
			c0,1.824-1.479,3.303-3.303,3.303s-3.303-1.479-3.303-3.303c0-1.825,1.479-3.303,3.303-3.303S261.572,91.546,261.572,93.37z"/>
		<path style="fill:none;stroke:#222221;stroke-linecap:round;stroke-linejoin:round;stroke-miterlimit:10;" d="M437.416,285.205
			c0-2.346,1.902-4.247,4.247-4.247s4.247,1.902,4.247,4.247"/>
		<path style="fill:none;stroke:#222221;stroke-linecap:round;stroke-linejoin:round;stroke-miterlimit:10;" d="M246.119,88.008
			c-4.247,0-7.69-3.443-7.69-7.69s3.443-7.69,7.69-7.69s7.69,3.443,7.69,7.69"/>
		<path style="fill:none;stroke:#222221;stroke-linecap:round;stroke-linejoin:round;stroke-miterlimit:10;" d="M112.188,127.761
			c0,2.964-2.403,5.366-5.366,5.366s-5.366-2.403-5.366-5.366s2.403-5.366,5.366-5.366S112.188,124.797,112.188,127.761z"/>
		
			<circle style="fill:none;stroke:#222221;stroke-linecap:round;stroke-linejoin:round;stroke-miterlimit:10;" cx="457.837" cy="303.478" r="5.793"/>
		<path style="fill:none;stroke:#222221;stroke-linecap:round;stroke-linejoin:round;stroke-miterlimit:10;" d="M160.671,190.375
			c0-3.556,2.883-6.439,6.439-6.439c3.556,0,6.439,2.883,6.439,6.439s-2.883,6.439-6.439,6.439"/>
		<polygon style="fill:#F0B6B6;" points="442.306,233.67 446.252,218.32 447.586,233.67 456.943,225.995 450.171,236.106 
			457.91,242.432 448.805,240.791 448.933,250.712 443.739,240.791 436.878,248.962 438.582,239.933 428.66,236.897 438.29,236.897 
			435.852,224.674 		"/>
		<polygon style="fill:#F0B6B6;" points="107.634,176.893 109.161,165.094 111.429,175.711 120.341,170.993 114.656,178.615 
			122.347,183.289 112.958,182.645 112.316,190.375 108.972,183.289 101.282,188.922 105.628,181.425 99.61,178.239 
			105.628,178.512 99.61,170.092 		"/>
		<polygon style="fill:#F0B6B6;" points="356.033,164.383 358.834,150.676 360.665,164.383 371.818,156.689 364.353,167.241 
			374.629,174.683 361.931,173.626 360.773,182.822 357.406,174.184 347.673,182.822 351.994,171.124 340.184,170.041 
			351.549,166.749 348.596,156.705 		"/>
	</g>
	<g>
		<g>
			<g>
				<g id="XMLID_148_">
					<g id="XMLID_123_">
						<g id="XMLID_149_">
							<path id="XMLID_2510_" style="fill:#9EAADE;" d="M80.611,289.915c12.728-18.124,33.071-28.303,50.72-40.869
								c10.816-7.702,22.399-17.594,35.062-22.19c7.173-2.604,29.777-9.072,37.332-6.045c7.041,2.82-1.027,11.045,2.088,17.845
								c3.229,7.05,4.102,14.988,3.766,22.735c-0.705,16.269-16.309,26.458-28.354,34.676
								c-17.082,11.655-34.385,22.986-51.896,33.986c-10.251,6.44-22.494,7.283-34.371,7.494c-6.651,0.118-13.68-0.18-19.31-3.723
								c-7.571-4.765-7.437-12.461-5.429-20.102C72.468,305.162,75.484,297.215,80.611,289.915z"/>
						</g>
					</g>
				</g>
				<g id="XMLID_100_">
					<g id="XMLID_101_">
						<g id="XMLID_102_">
							<g id="XMLID_103_">
								<path style="fill:#79BDB5;" d="M305.529,414.257c0.992-2.266,1.836-4.562,2.285-6.936
									c1.352-7.139-1.239-19.885-8.228-23.967c-3.853-2.25-9.027-1.857-13.29-2.027c-7.065-0.282-14.129-0.582-21.192-0.899
									c-13.97-0.626-27.937-1.317-41.9-2.074c-15.689-0.851-31.374-1.785-47.053-2.801c-2.588,12.901-5.176,25.803-7.763,38.704
									H305.529z"/>
							</g>
						</g>
					</g>
				</g>
				<g id="XMLID_20_">
					<g>
						<g id="XMLID_64_">
							<g id="XMLID_65_">
								<g id="XMLID_66_">
									<path id="XMLID_67_" style="fill:#A86A59;" d="M190.58,237.763c0.014,0.063,0.022,0.125,0.038,0.188
										c6.247,24.948,31.31,38.585,55.76,38.892c0.19,0.003,0.385-0.003,0.576-0.001c0.479,0.051,0.957,0.128,1.435,0.17
										c12.626,1.129,26.313-2.811,35.706-10.957c4.452-3.48,7.529-8.008,9.424-13.057c0.041-0.105,0.075-0.214,0.116-0.319
										c0.142-0.39,0.288-0.778,0.416-1.173c1.325-3.939,2.037-8.037,3.361-11.795c1.073-3.044,2.136-5.256-1.544-7.76
										c-2.56-1.742-5.783-2.094-8.732-3.038c-9.503-3.042-15.929-12.42-18.003-22.181c-2.074-9.76-0.491-19.909,1.627-29.66
										c1.684-7.751,3.717-15.567,3.287-23.487c-0.401-7.397-3.375-12.733-7.786-18.427c-7.525-9.71-23.433-6.662-34.615-8.86
										c-2.191-0.431-4.765-0.811-6.396,0.715c-0.91,0.851-1.289,2.111-1.62,3.312c-2.348,8.523-3.007,17.505-5.339,25.955
										c-2.236,8.101-3.9,22.407,4.205,28.231c1.842,1.323,4.557,2.197,4.809,4.451c0.087,0.775-0.172,1.543-0.426,2.281
										c-2.642,7.649-4.334,19.954-11.066,24.771c-6.073,4.346-14.015,5.544-21.303,5.596c-3.826,0.027-5.952,0.867-6.973,2.236
										C185.268,226.89,188.454,232.555,190.58,237.763z"/>
								</g>
							</g>
						</g>
					</g>
				</g>
				<g id="XMLID_9_">
					<g id="XMLID_14_">
						<g id="XMLID_15_">
							<g id="XMLID_18_">
								<path id="XMLID_19_" style="fill:#FFFFFF;" d="M192.571,269.863c-1.995,6.307-3.662,12.725-4.367,19.488
									c-2.078,20.995-4.373,41.97-6.56,62.954c-2.017,19.359-5.609,38.472-5.822,57.814c15.574,2.269,31.384,2.158,47.121,2.041
									c15.103-0.112,30.206-0.223,45.309-0.335c16.038-0.119,32.096-0.238,48.073-1.647c1.069-0.094,2.216-0.227,3.016-0.942
									c0.864-0.772,1.094-2.012,1.273-3.157c0.67-4.276,2.167-8.84,2.574-13.054c0.445-4.609-0.876-9.886-1.359-14.488
									c-1.056-10.06-2.118-20.12-3.205-30.177c-2.212-20.473-4.521-40.935-7.066-61.37c-0.876-7.028-1.792-14.11-4.094-20.808
									c-3.698-10.764-16.191-40.057-28.192-39.047c-8.123,0.684-16.614,7.495-25.645,8.267
									c-9.657,0.825-19.537-0.677-28.408-4.624c-4.328-1.925-14.698-11.773-18.899-9.678c-4.082,2.036-4.441,19.507-5.462,23.331
									C198.558,253.054,195.26,261.363,192.571,269.863z"/>
							</g>
						</g>
					</g>
				</g>
				<g id="XMLID_40_">
					<g>
						<g id="XMLID_39_">
							<g id="XMLID_41_">
								<g id="XMLID_42_">
									<path style="fill:#9EAADE;" d="M140.233,278.787c4.821,10.192,8.038,19.348,10.42,29.255
										c0.566,2.352,0.815,10.446-1.464,11.857c7.544-4.673,14.975-9.53,22.283-14.565
										c-1.873,36.204-10.273,72.508-21.483,107.169h75.153c2.535-20.104,4.673-40.547,6.356-60.973
										c-0.66-0.088-1.288-0.547-1.316-1.396c-0.299-9.108-1.533-18.157-1.686-27.277c-0.123-7.394,0.076-15.857,3.559-22.645
										c-0.879-9.805-1.673-19.619-2.953-29.376c-0.56-3.132-1.157-6.259-1.795-9.377c-0.089-0.434,0.033-0.764,0.219-1.042
										c-6.264-12.794-10.517-26.569-17.119-39.268c-2.902-5.581-6.676-3.432-12.48-2.544c-3.905,0.597-7.815,1.199-11.707,1.891
										c-8.789,1.564-17.327,4.756-25.285,8.747c-12.346,6.193-23.506,14.506-34.146,23.309
										C127.435,252.211,139.438,277.105,140.233,278.787z"/>
									<path style="fill:#FFFFFF;" d="M231.401,323.97c0.012,0.502,0.052,1.002,0.071,1.503c0.038-4.275,0.117-8.55,0.184-12.824
										C231.278,316.48,231.313,320.374,231.401,323.97z"/>
									<path style="fill:#9EAADE;" d="M349.023,412.504c-0.742-2.184-1.453-4.383-2.106-6.608
										c-9.905-33.753-11.111-66.42-14.193-100.947c-1.117-12.514-1.434-25.14-3.824-37.474
										c-1.995-10.299-7.51-32.469-19.424-35.353c-7.823-1.894-15.646-3.787-23.47-5.68c-2.201,5.937-4.763,11.706-7.343,17.473
										c-6.301,14.089-8.686,31.448-11.077,46.586c-2.539,16.08-3.756,32.692-4.728,48.936
										c-1.465,24.457-3.281,48.757-1.216,73.068H349.023z"/>
								</g>
							</g>
						</g>
					</g>
				</g>
				<g>
					<defs>
						<path id="XMLID_3_" d="M190.58,237.763c0.014,0.063,0.022,0.125,0.038,0.188c6.247,24.948,31.31,38.585,55.76,38.892
							c0.19,0.003,0.385-0.003,0.576-0.001c0.479,0.051,0.957,0.128,1.435,0.17c12.626,1.129,26.313-2.811,35.706-10.957
							c4.452-3.48,7.529-8.008,9.424-13.057c0.041-0.105,0.075-0.214,0.116-0.319c0.142-0.39,0.288-0.778,0.416-1.173
							c1.325-3.939,2.037-8.037,3.361-11.795c1.073-3.044,2.136-5.256-1.544-7.76c-2.56-1.742-5.783-2.094-8.732-3.038
							c-9.503-3.042-15.929-12.42-18.003-22.181c-2.074-9.76-0.491-19.909,1.627-29.66c1.684-7.751,3.717-15.567,3.287-23.487
							c-0.401-7.397-3.375-12.733-7.785-18.426c-3.785-4.885-6.28-5.357-12.144-7.422c-0.905-0.319-1.843-0.592-2.817-0.811
							c-15.351-3.435-26.198,6.248-31.19,19.931c-2.677,7.338-4.726,15.356-3.775,23.221c0.411,3.396,0.954,6.912,2.568,9.974
							c0.859,1.629,2.115,3.013,3.492,4.222c0.678,0.595,1.393,1.148,2.125,1.675c0.637,0.458,1.871,0.947,2.334,1.558
							c0.842,1.108-0.314,4.224-0.613,5.617c-1.958,9.118-4.778,20.187-13.681,24.939c-5.417,2.892-12.01,3.505-18.05,3.548
							c-3.826,0.027-5.952,0.867-6.973,2.236C185.268,226.89,188.454,232.555,190.58,237.763z"/>
					</defs>
					<clipPath id="XMLID_00000033361228367492973250000004889191767117539735_">
						<use xlink:href="#XMLID_3_"  style="overflow:visible;"/>
					</clipPath>
					<path style="clip-path:url(#XMLID_00000033361228367492973250000004889191767117539735_);" d="M239.897,188.84
						c-0.029,0-0.057,0-0.085,0c-3.517,0.057-6.759,0.015-10.235-0.84c-3.54-0.871-6.955-2.195-10.275-3.69
						c-0.042,0.532-0.087,1.21-0.202,2.113c-0.365,2.885-0.619,5.791-0.865,8.696c0.065-0.764,9.849-0.487,10.628-0.669
						c1.371-0.321,2.567-1.148,3.89-1.631c1.303-0.476,2.703-0.61,4.049-0.946c1.346-0.335,2.711-0.928,3.516-2.058
						c0.165-0.232,0.301-0.559,0.128-0.785C240.323,188.872,240.104,188.842,239.897,188.84z"/>
				</g>
				<path style="fill:#9EAADE;" d="M211.402,214.842c2.736,0.073,7.772,16.637,14.364,39.28c5.804,19.94,7.405,58.401,7.211,76.305
					c-0.922,84.88-7.186,77.389-7.186,77.389l-16.133-127.299l14.046-13.319l-19.155-0.509l1.415-50.804L211.402,214.842z"/>
				<path style="fill:#9EAADE;" d="M282.403,222.205l8.137,2.955l2.273,49.575l-20.337,0.814l16.101,23.494
					c-0.036,0.127-0.071,0.255-0.107,0.382c-4.885,17.507-9.77,35.013-14.655,52.52c-6.49,18.881-10.924,38.328-10.828,58.33
					c-2.004-0.278-4.047-0.266-6.047,0.036c-1.217-5.946-0.82-12.046-0.293-18.045c0.536-6.1,0.509-12.262,0.82-18.38
					c0.645-12.655,1.688-25.29,3.139-37.878c2.137-18.539,2.648-37.128,6.591-55.453
					C270.866,263.498,282.403,222.205,282.403,222.205z"/>
				<path style="fill:#9EAADE;" d="M375.732,254.301c16.529,9.778,31.869,21.601,44.595,35.943
					c15.56,17.536,27.095,38.998,30.992,62.115c1.118,6.634,1.526,13.808-1.648,19.739c-6.323,11.812-25.943,8.297-36.478,6.094
					c-8.524-1.783-16.978-4.402-24.409-8.941c-9.251-5.651-16.483-13.986-24.352-21.443c-13.197-12.507-28.379-22.693-42.62-33.997
					c-11.895-9.442-21.454-19.521-25.329-34.453c-4.473-17.237-7.441-34.743-8.391-52.541c-0.065-1.213-0.064-2.581,0.796-3.439
					c1.003-1.001,2.648-0.808,4.039-0.534c24.91,4.926,49.106,13.45,71.604,25.225C368.313,250.048,372.052,252.124,375.732,254.301
					z"/>
				<path style="fill:#35325E;" d="M266.695,165.354c1.122-0.189,2.327,0.537,2.683,1.617c0.356,1.08-0.18,2.381-1.194,2.896
					c-0.222,0.112-0.508,0.184-0.706,0.034"/>
				<g id="XMLID_22_">
					<g id="XMLID_23_">
						<path d="M263.547,197.157c-0.422-6.474,0.219-12.138,1.641-18.517c1.59-7.128,3.885-15.473,4.042-22.75
							c-3.853,0.691-7.816-1.444-10.188-4.558c-2.372-3.114-3.393-7.051-3.923-10.93c0.01,0.072-18.658-3.845-20.398-4.114
							c-6.088-0.943-12.918-2.678-15.344-9.231c-1.919-5.182,1.056-11.642,6.24-13.554c9.444-3.482,18.381,4.987,26.796,7.441
							c5.649,1.647,11.6,2.215,17,4.68c18.115,8.268,20.882,34.727,9.632,49.587c10.053,1.406,20.292,3.805,28.532,9.733
							c8.24,5.928,14.092,16.081,12.419,26.093c-3.176,18.998-21.376,25.716-38.354,20.873
							c-15.366-4.383-17.155-20.865-18.085-34.589C263.555,197.266,263.551,197.211,263.547,197.157z"/>
					</g>
				</g>
				<path style="fill:#A86A59;" d="M259.156,168.392c0.017,0.327,0.033,0.654,0.05,0.981c2.197,1.844,5.237,2.503,7.948,1.725
					c2.711-0.779,5.028-2.977,6.059-5.748c0.929-2.497,0.8-5.432-0.438-7.766c-1.238-2.334-3.587-3.99-6.108-4.186
					c-1.662-0.13-3.312,0.339-4.903,0.871c-1.357,0.454-2.805,1.043-3.557,2.325C255.776,160.729,255.683,165.225,259.156,168.392z"
					/>
				<path style="fill:#FFFFFF;" d="M219.641,166.497c0.131,3.263,2.471,6.33,5.604,7.345c3.133,1.015,6.847-0.09,8.895-2.648"/>
				<path style="fill:none;stroke:#222221;stroke-linecap:round;stroke-linejoin:round;stroke-miterlimit:10;" d="M333.197,311.177
					c-2.592-5.19-5.185-10.38-7.777-15.57"/>
				<path style="fill:none;stroke:#222221;stroke-linecap:round;stroke-linejoin:round;stroke-miterlimit:10;" d="M170.437,316.232
					c0.316-8.88,1.34-17.734,3.061-26.451"/>
				<path style="fill:none;stroke:#000000;stroke-linecap:round;stroke-linejoin:round;stroke-miterlimit:10;" d="M227.579,148.169
					c-0.15,5.662-4.862,10.129-10.523,9.979c-5.661-0.151-10.129-4.861-9.978-10.523c0.15-5.661,4.862-10.128,10.523-9.978
					C223.262,137.797,227.729,142.508,227.579,148.169z"/>
				<path style="fill:none;stroke:#000000;stroke-linecap:round;stroke-linejoin:round;stroke-miterlimit:10;" d="M251.901,156.176
					c-0.15,5.661-4.862,10.129-10.523,9.979c-5.661-0.15-10.129-4.862-9.979-10.523s4.862-10.129,10.523-9.978
					C247.584,145.803,252.051,150.514,251.901,156.176z"/>
				<path style="fill:none;stroke:#000000;stroke-linecap:round;stroke-linejoin:round;stroke-miterlimit:10;" d="M269.61,157.829
					c-2.348-0.887-5.205-0.209-6.904,1.639c-1.699,1.848-2.136,4.751-1.055,7.017"/>
			</g>
			
				<line style="fill:none;stroke:#000000;stroke-linecap:round;stroke-linejoin:round;stroke-miterlimit:10;" x1="231.909" y1="152.706" x2="226.867" y2="150.842"/>
			<path d="M434.674,341.898c1.337,0.594,2.605,1.353,3.783,2.308c1.498,1.214,2.819,2.685,4.531,3.571
				c0.955,0.495,2.004,0.79,2.959,1.286c1.995,1.036,3.507,2.976,3.987,5.173c1.97,8.998-10.461,10.267-16.493,10.201
				c-7.311-0.081-14.637,0.643-21.899-0.59c-3.653-0.62-6.47-1.828-9.498-3.875c-4.35-2.94-9.316-5.049-14.456-6.115
				c-3.956-0.821-8.31-1.163-11.316-3.863c3.505-1.471,7.302-2.24,11.103-2.25c2.713-0.007,5.576,0.339,8.01-0.859
				c0.759-0.374,1.442-0.885,2.184-1.292c1.471-0.806,3.134-1.182,4.773-1.543C411.81,341.96,425.048,337.626,434.674,341.898z"/>
			
				<line style="fill:none;stroke:#000000;stroke-linecap:round;stroke-linejoin:round;stroke-miterlimit:10;" x1="251.384" y1="159.681" x2="262.434" y2="153.88"/>
			<path style="fill:#A86A59;" d="M446.711,392.071c4.01-8.478,5.791-18.696,6.498-26.548c0.761-8.452-1.845-13.533-10.375-15.559
				c-14.969-3.556-30.541-3.232-45.926-3.334c-23.936-0.158-47.866-1.396-71.691-3.709c-8.306-0.806-16.941-2.483-21.182,6.348
				c-3.23,6.726,0.296,18.075,4.846,23.243c4.92,5.588,11.928,8.811,18.767,11.754c28.563,12.293,58.527,22.574,89.581,24.185
				c5.507,0.286,11.228,0.258,16.261-1.996C439.465,403.78,443.711,398.412,446.711,392.071z"/>
			<path d="M263.681,172.069c-1.308,0.6-2.185,1.834-3.118,2.929c-1.666,1.953-3.69,3.6-5.941,4.834
				c-0.462,0.253-1.008,0.787-0.676,1.195c0.066,0.081,0.158,0.136,0.251,0.184c1.108,0.573,2.47,0.359,3.622-0.122
				c1.151-0.481,2.189-1.206,3.345-1.676c2.027-0.824,4.307-0.822,6.365-1.567c1.537-0.556,3.031-1.701,3.293-3.314
				C271.496,170.392,265.99,171.01,263.681,172.069z"/>
		</g>
		<polyline style="fill:none;stroke:#222221;stroke-linecap:round;stroke-linejoin:round;stroke-miterlimit:10;" points="
			282.403,222.205 290.54,225.16 292.814,274.735 272.476,275.549 288.577,299.044 258.323,386.977 		"/>
		<polyline style="fill:none;stroke:#222221;stroke-linecap:round;stroke-linejoin:round;stroke-miterlimit:10;" points="
			227.27,394.725 206.517,286.732 224.046,272.361 204.548,266.689 205.964,215.885 211.402,214.842 		"/>
		<g>
			<path style="fill:#FFFFFF;" d="M58.357,311.171c-2.288,5.306-2.898,11.042-3.819,16.674c-0.94,5.749-3.832,11.017-4.526,16.793
				c-0.454,3.78,0.244,7.608,1.26,11.277c2.675,9.657,7.605,18.681,14.287,26.148c3.873,4.329,8.87,8.357,14.679,8.397
				c4.787,0.034,9.943,0.395,14.367,2.26c5.062,2.134,9.982,4.518,14.939,6.886c5.083,2.428,10.247,4.686,15.481,6.769
				c1.495,0.595,3.02,1.182,4.622,1.336c1.896,0.183,3.789-0.249,5.663-0.59c4.158-0.758,8.395-1.08,12.619-0.961
				c2.459,0.07,4.929,0.288,7.37-0.011c2.441-0.299,4.907-1.176,6.595-2.965c2.056-2.179,2.135-5.696,2.538-8.536
				c0.589-4.152,0.946-8.349,1.412-12.517c1.078-9.654,1.961-19.142-1.696-28.41c-1.266-3.207-3.211-6.462-6.414-7.739
				c0.196-7.988-1.979-15.11-5.339-22.424c-6.491-14.124-16.861-27.545-31.587-32.52c-9.169-3.098-19.243-2.624-28.643-0.322
				c-3.934,0.963-7.481,3.421-10.804-0.014c-0.975-1.008-1.755-2.336-3.083-2.786c-1.943-0.658-3.888,0.886-5.311,2.363
				c-5.405,5.609-10.008,11.982-13.645,18.87C58.974,309.808,58.653,310.483,58.357,311.171z"/>
			<path style="fill:#FFFFFF;" d="M68.197,396.771c-1.834,0.855-3.382,1.839-4.977,4.049c-1.084,1.502-1.644,3.511-0.975,5.238
				c0.619,1.597,2.18,2.678,3.825,3.154c5.707,1.65,10.728,0.195,16.38-0.535c4.356-0.563,9.04-0.537,13.45-0.156
				c1.926,0.167,4.011,0.392,5.661-0.615c1.545-0.943,2.344-2.824,2.359-4.634c0.015-1.81-0.649-3.561-1.483-5.168
				c-3.887-7.487-16.591-15.794-24.162-8.362c-1.896,1.861-3.61,4.017-5.993,5.194C70.733,395.701,69.403,396.209,68.197,396.771z"
				/>
			<path style="fill:#FFFFFF;" d="M131.583,291.71c3.374,5.265,6.445,11.775,4.045,17.549c-0.888,2.136-2.462,3.928-4.236,5.412
				c-6.99,5.847-16.773,7.043-25.872,6.538c-7.396-0.411-14.764-1.791-21.685-4.428c-6.591-2.512-13.149-6.604-15.83-13.129
				c-1.805-4.393-1.611-9.416-0.291-13.979c1.319-4.563,3.693-8.744,6.197-12.78c3.263-5.26,6.891-10.473,11.931-14.068
				c3.96-2.825,9.382-4.829,14.304-3.93c3.991,0.729,6.771,4.392,9.672,7.034C118.158,273.522,125.498,282.214,131.583,291.71z"/>
			<path style="fill:#FFFFFF;" d="M98.51,216.955c1.168-1.676,2.616-3.406,4.627-3.765c2.341,11.891,3.24,24.065,2.669,36.171
				c-0.238,5.049-0.895,15.397-6.941,17.314c-5.744,1.821-9.061-6.446-9.817-10.703C86.705,242.788,90.962,227.78,98.51,216.955z"/>
			<path style="fill:#FFFFFF;" d="M78.31,250.189c-3.531-6.25-8.641-11.851-15.251-14.651c-3.592-1.522-7.818-2.428-11.691-2.743
				c-6.454-0.525-7.515,1.346-6.802,7.611c1.569,13.802,8.896,26.902,19.944,35.346c1.593,1.217,3.315,2.407,4.255,4.178
				c0.526,0.99,0.771,2.102,1.011,3.197c0.719,3.291,1.438,6.583,2.157,9.874c-0.01-0.048,7.491-6.871,8.177-7.81
				c2.293-3.143,4.019-6.699,5.05-10.451C87.286,267.006,82.092,256.884,78.31,250.189z"/>
			<path style="fill:#FFFFFF;" d="M97.466,394.83c-0.526-9.978-1.238-19.896-2.767-29.777c-0.841-5.431-1.737-10.876-2.287-16.346
				c-0.878-0.177-1.755-0.354-2.632-0.53c-4.809-0.969-10.998-1.636-15.485,0.828c-9.01,4.949-5.64,12.828-2.794,20.136
				c3.865,9.924,6.384,20.372,7.448,30.97c0.284,2.824,0.536,5.846,2.298,8.072c2.66,3.36,11.977,5.208,15.866,3.326
				c0.646-0.313,1.086-0.83,1.393-1.45C98.027,404.993,97.734,399.912,97.466,394.83z"/>
			<path style="fill:#FFFFFF;" d="M126.945,357.417c-3.007-2.826-7.278-3.754-11.323-4.569c-5.66-1.14-11.32-2.281-16.98-3.421
				c0.11,1.028,0.228,2.055,0.361,3.081c1.278,9.835,3.083,19.551,3.858,29.452c0.743,9.493,0.943,19.022,1.858,28.502
				c0.021,0.022,0.034,0.051,0.055,0.072c3.43,3.524,13.575,3.121,16.561-0.675c1.285-1.634,1.688-3.776,1.99-5.833
				c0.749-5.09,0.535-9.755,0.493-14.76c-0.07-8.185,6.202-13.718,6.866-21.381C131.014,364.066,129.739,360.044,126.945,357.417z"
				/>
			<path style="fill:#F7C040;" d="M149.3,313.317c-0.818-1.187-1.678-2.346-2.577-3.473c-1.471-1.844-5.883-5.121-7.734-6.728
				c-0.1,5.358,0.568,12.018-3.32,16.058c-5.226,5.43-12.691,8.418-19.952,9.9c-8.514,1.737-17.403,1.638-25.906-0.111
				c-8.25-1.697-16.342-5.112-22.702-10.724c-3.267-2.883-5.843-6.318-7.694-10.11c-1.884,4.659-3.332,9.484-4.469,14.376
				c-0.242,1.043-2.838,12.928-2.434,13.083c4.837,1.843,8.443,6.12,10.524,10.86c2.709,6.171,2.023,13.052,4.76,19.115
				c0.148,0.328,0.317,0.668,0.618,0.865c1.325,0.87,0.252-6.39,0.299-7.369c0.163-3.401,0.644-6.998,2.302-10.027
				c2.126-3.892,6.769-5.019,10.805-5.615c2.288-0.338,4.667-0.512,6.877,0.169c7.719,2.38,5.628,16.176,6.073,22.459
				c0.356,5.024,0.629,10.055,0.96,15.081c0.197,3.004,0.248,6.073,0.632,9.059c-0.014,0,1.038,9.674,1.117,10.308
				c0.022,0.179,0.052,0.373,0.184,0.495c0.099,0.093,0.238,0.126,0.371,0.156c1.978,0.442,3.99,0.727,6.013,0.851
				c0.05-8.195-0.791-15.499-2.411-23.595c-1.041-5.192-2.227-10.442-2.633-15.737c-0.528-6.879-0.108-15.927,6.254-20.254
				c1.77-1.204,3.875-1.849,5.998-2.128c3.427-0.45,7.052,0.062,9.995,1.875c2.943,1.813,5.103,5.021,5.224,8.476
				c0.049,1.408-0.228,2.806-0.526,4.183c-0.979,4.525-2.205,8.997-3.671,13.389c-1.835,5.499-2.44,11.622-2.463,17.43
				c-0.009,2.313,0.08,4.628,0.301,6.931c0.107,1.113,1.367,5.201,0.89,6.051c2.757-4.901,9.282-7.554,14.329-9.299
				c-2.402-7.613-3.717-15.766-2.171-23.598c1.546-7.832,6.301-15.304,13.522-18.708c3.753-1.768,8.456-2.286,11.891,0.04
				C158.474,335.262,156.056,323.121,149.3,313.317z"/>
			<path style="fill:#FFFFFF;" d="M122.906,396.952c-1.842,1.807-3.453,4.04-3.731,6.605c-0.278,2.565,1.17,5.44,3.672,6.067
				c1.065,0.267,2.184,0.117,3.271-0.035c7.5-1.045,15.44-0.657,23.01-0.925c1.361-0.048,2.872-0.162,3.801-1.157
				c0.475-0.509,0.726-1.182,0.96-1.837c1.303-3.643,2.464-7.338,3.48-11.071c0.399-1.465,0.767-3.066,0.171-4.462
				c-2.21-5.173-13.313-3.369-17.224-2.316C133.976,389.53,128.016,392.864,122.906,396.952z"/>
			<g>
				<defs>
					<path id="SVGID_1_" d="M131.583,291.71c3.374,5.265,6.545,12.963,4.144,18.737c-0.888,2.136-1.558,3.034-3.333,4.518
						c-6.99,5.847-17.776,6.749-26.875,6.244c-7.396-0.411-14.764-1.791-21.685-4.428c-6.591-2.512-13.149-6.604-15.83-13.129
						c-1.805-4.393-1.611-9.416-0.291-13.979c1.319-4.563,3.693-8.744,6.197-12.78c3.263-5.26,6.891-10.473,11.931-14.068
						c3.96-2.825,9.382-4.829,14.304-3.93c3.991,0.729,6.771,4.392,9.672,7.034C118.158,273.522,125.498,282.214,131.583,291.71z"/>
				</defs>
				<clipPath id="SVGID_00000070838948945166136120000002801688622523768731_">
					<use xlink:href="#SVGID_1_"  style="overflow:visible;"/>
				</clipPath>
				<path style="clip-path:url(#SVGID_00000070838948945166136120000002801688622523768731_);fill:#D0D7F5;" d="M98.571,287.388
					c5.741,4.889,8.372,12.732,10.39,19.954c1.295,4.636,2.928,9.851,7.26,11.948c2.9,1.404,6.364,1.008,9.428,0.009
					c4.139-1.349,7.97-3.784,10.676-7.195c6.751-8.508,5.207-21.115,0.385-30.847c-5.916-11.939-16.765-21.862-29.825-24.504
					c-2.536-0.513-5.134-0.705-7.718-0.602c-6.186,0.246-12.355,2.175-17.469,5.689c-2.542,1.747-4.814,3.89-6.648,6.373
					c-2.066,2.796-2.761,5.285-3.106,8.693c-0.291,2.865-1.685,5.485-3.053,8.02c5.097-2.431,10.934-2.948,16.558-2.45
					c2.692,0.238,5.389,0.706,7.891,1.727C95.33,285.017,97.058,286.1,98.571,287.388z"/>
			</g>
			<path style="fill:none;stroke:#222221;stroke-linecap:round;stroke-linejoin:round;stroke-miterlimit:10;" d="M118.323,411.863
				c-2.6,1.325-5.683,1.673-8.513,0.962"/>
			<path style="fill:none;stroke:#222221;stroke-linecap:round;stroke-linejoin:round;stroke-miterlimit:10;" d="M69.214,285.87
				c1.565-4.786,4.157-9.233,7.551-12.953"/>
			<path style="fill:none;stroke:#222221;stroke-linecap:round;stroke-linejoin:round;stroke-miterlimit:10;" d="M80.076,406.743
				c-1.115-2.528-0.009-4.049,1.112-6.189c2.023-3.857-0.67-5.786-2.639-9.424c-2.21-4.084-4.064-8.36-5.53-12.766"/>
			<path style="fill:none;stroke:#222221;stroke-linecap:round;stroke-linejoin:round;stroke-miterlimit:10;" d="M122.689,365.729
				c-3.227,11.778-2.478,24.146-2.463,36.232"/>
			<path style="fill:none;stroke:#222221;stroke-linecap:round;stroke-linejoin:round;stroke-miterlimit:10;" d="M139.826,387.345
				c-4.284,2.664-9.407,3.795-13.612,6.626c-2.66,1.791-4.758,4.215-5.865,7.258c-0.085,0.235-0.166,0.485-0.124,0.731
				c0.07,0.408,0.442,0.679,0.754,0.95c2.266,1.964,2.225,5.577,0.152,7.634"/>
			<path style="fill:none;stroke:#222221;stroke-linecap:round;stroke-linejoin:round;stroke-miterlimit:10;" d="M100.686,373.973
				c1.391,8.161,2.785,16.361,3.174,24.642c0.173,3.677,0.073,6.981-0.008,10.661"/>
			<path style="fill:none;stroke:#222221;stroke-linecap:round;stroke-linejoin:round;stroke-miterlimit:10;" d="M81.054,408.131
				c1.054,1.669,2.86,2.752,4.75,3.321c1.89,0.57,3.884,0.681,5.855,0.788c1.315,0.072,2.631,0.143,3.946,0.215"/>
			<path style="fill:#222221;" d="M93.64,290.149c-0.742-0.302-1.532-0.493-2.34-0.558c-2.444-0.198-5.252,0.571-5.694,3.338
				c-0.233,1.458,0.413,2.946,1.385,4.057c2.355,2.693,6.347,3.374,9.885,2.839c0.688-0.104,1.409-0.266,1.916-0.742
				c1.248-1.169-0.264-3.312-0.799-4.464c-0.229-0.492-0.458-0.985-0.742-1.448C96.412,291.801,95.124,290.753,93.64,290.149z"/>
			<path style="fill:#FFFFFF;" d="M88.796,291.586c-0.387,0.624-0.445,1.466,0.123,1.968c0.216,0.19,0.518,0.259,0.806,0.247
				c1.494-0.061,2.348-2.505,0.675-2.968C89.743,290.651,89.14,291.033,88.796,291.586z"/>
			<path style="fill:none;stroke:#222221;stroke-linecap:round;stroke-linejoin:round;stroke-miterlimit:10;" d="M129.697,316.46
				c0.79-0.379,1.301-1.195,1.522-2.043c0.221-0.848,0.193-1.739,0.162-2.615c0.558,1.377,2.373,2.076,3.711,1.428"/>
			<path style="fill:#222221;" d="M128.191,312.876c-0.492-0.013-1.01-0.033-1.424-0.252c-0.64-0.338-0.828-1.07-0.637-1.675
				c0.191-0.605,0.681-1.113,1.168-1.593c0.739-0.728,1.545-1.466,2.62-1.809c1.075-0.343,2.489-0.154,3.073,0.664
				c0.322,0.45,0.343,1.008,0.231,1.522C132.744,311.925,130.65,312.942,128.191,312.876z"/>
			<path style="fill:none;stroke:#222221;stroke-linecap:round;stroke-linejoin:round;stroke-miterlimit:10;" d="M68.814,357.006
				c-0.156,6.498,0.812,13.022,2.848,19.195"/>
			<path style="fill:none;stroke:#222221;stroke-linecap:round;stroke-linejoin:round;stroke-miterlimit:10;" d="M126.162,318.42
				c-9.169,3.22-19.018,4.489-28.704,3.7c-3.662-0.298-7.33-0.896-10.756-2.223c-2.628-1.018-5.083-2.456-7.345-4.138
				c-5.642-4.193-10.109-9.948-12.771-16.454"/>
			<path style="fill:none;stroke:#222221;stroke-linecap:round;stroke-linejoin:round;stroke-miterlimit:10;" d="M135.675,310.75
				c1.216-4.964,0.475-10.38-2.029-14.835"/>
			<path style="fill:none;stroke:#222221;stroke-linecap:round;stroke-linejoin:round;stroke-miterlimit:10;" d="M131.543,292.155
				c-5.845-9.711-13.129-18.556-21.54-26.154"/>
			<path style="fill:#D0D7F5;" d="M64.966,263.494c-0.421-0.38-0.876-0.727-1.324-1.077c-5.433-4.25-10.112-9.461-13.754-15.319
				c-1.806-2.904-1.548-6.166,2.51-5.852c2.621,0.203,5.899,2.622,8.113,3.916c5.845,3.416,11.311,8.853,12.664,15.719
				c0.722,3.667,0.446,7.448,0.167,11.175c-0.192,2.564-0.708,5.613-3.061,6.649c-2.201-1.366-2.743-4.302-2.844-6.891
				c-0.101-2.589-0.049-5.414-1.648-7.453C65.542,264.047,65.263,263.762,64.966,263.494z"/>
			<path style="fill:#D0D7F5;" d="M103.342,222.634c1.745,3.246,1.253,7.594,1.443,11.154c0.188,3.501,0.193,7.011,0.018,10.512
				c-0.197,3.928-0.381,8.259-1.249,12.101c-0.181,0.8-0.27,2.583-0.863,3.198c-0.637,0.659-1.849,0.233-2.267-0.547
				c-0.132-0.247-0.173-0.53-0.209-0.808c-0.327-2.502-0.456-5.031-0.387-7.553c0.155-5.647,1.3-11.223,1.629-16.862
				c0.206-3.536,0.091-7.099,0.614-10.602c0.078-0.522,0.451-1.206,0.929-0.984C103.155,222.314,103.252,222.467,103.342,222.634z"
				/>
			<path style="fill:none;stroke:#222221;stroke-linecap:round;stroke-linejoin:round;stroke-miterlimit:10;" d="M106.336,262.547
				c-2.399-2.219-5.453-3.72-8.675-4.265"/>
			<path style="fill:none;stroke:#222221;stroke-linecap:round;stroke-linejoin:round;stroke-miterlimit:10;" d="M73.183,275.732
				c0.478-5.024,0.225-10.117-0.749-15.069"/>
			<path style="fill:none;stroke:#222221;stroke-linecap:round;stroke-linejoin:round;stroke-miterlimit:10;" d="M71.197,254.697
				c-0.439-1.305-1.198-2.502-2.191-3.456"/>
			<path style="fill:none;stroke:#222221;stroke-linecap:round;stroke-linejoin:round;stroke-miterlimit:10;" d="M65.212,248.752
				c-3.302-4.676-8.726-7.789-14.429-8.281"/>
			<path style="fill:none;stroke:#222221;stroke-linecap:round;stroke-linejoin:round;stroke-miterlimit:10;" d="M102.096,223.654
				c-0.909,4.959-1.391,9.996-1.439,15.037"/>
			<path style="fill:none;stroke:#222221;stroke-linecap:round;stroke-linejoin:round;stroke-miterlimit:10;" d="M99.758,244.654
				c0,3.87,0,7.741,0,11.611"/>
			<path style="fill:none;stroke:#222221;stroke-linecap:round;stroke-linejoin:round;stroke-miterlimit:10;" d="M125.813,355.997
				c0.35-2.366,0.326-4.788-0.071-7.147"/>
			<path style="fill:none;stroke:#222221;stroke-linecap:round;stroke-linejoin:round;stroke-miterlimit:10;" d="M96.926,394.638
				c-0.016,2.664,0.935,5.224,1.542,7.818c0.606,2.594,0.831,5.479-0.511,7.781"/>
			<path d="M149.372,333.898c-0.444,0.128-0.88,0.287-1.301,0.48c-1.516,0.695-2.848,1.864-3.551,3.377
				c-0.729,1.569-0.784,3.464-1.875,4.807c-1.733,2.135-5.394,2.04-6.842,4.378c-0.57,0.921-0.669,2.052-0.676,3.136
				c-0.011,1.644-0.168,3.575,1.061,4.77c0.303,0.295,0.619,0.574,0.941,0.844c2.357-3.723,5.58-6.834,9.556-8.708
				c1.846-0.764,3.673-1.383,5.687-1.499c2.06-0.119,3.797,0.549,5.768,0.919c0.116,0.022,0.26,0.032,0.326-0.065
				c0.029-0.043,0.034-0.097,0.039-0.148c0.192-2.203-0.098-4.346-0.362-6.515c-0.211-1.732,0.021-3.674-1.36-5.017
				c-0.985-0.958-2.462-1.192-3.835-1.205C151.743,333.44,150.526,333.566,149.372,333.898z"/>
		</g>
		<path style="fill:#718EE3;" d="M34.077,414.089L34.077,414.089c0,2.834,2.297,5.131,5.131,5.131h421.584
			c2.834,0,5.131-2.297,5.131-5.131l0,0c0-2.834-2.297-5.131-5.131-5.131H39.208C36.374,408.957,34.077,411.255,34.077,414.089z"/>
		<g>
			<path style="fill:#A86A59;" d="M40.279,316.065c-1.018,4.464-1.226,9.17-0.933,13.549c0.446,6.652,1.759,13.28,4.167,19.508
				c1.236,3.195,2.47,6.45,4.386,9.313c0.964,1.44,2.109,2.829,3.561,3.802c0.589,0.395,1.481,1.019,2.21,1.053
				c0.18,0.009,2.236-0.436,1.621-0.95c1.328,1.111,2.878,2.135,4.609,2.161c1.732,0.027,3.57-1.349,3.442-3.076
				c1.062,1.087,3.028,0.627,4.012-0.53s1.249-2.745,1.476-4.247c1.586,0.183,3.012-1.199,3.449-2.736
				c0.669-2.355-0.118-5.648-0.325-8.084c-0.235-2.764-0.757-5.493-1.294-8.212c-1.05-5.318-2.237-10.72-1.656-16.171
				c0.155-1.451,6.159,4.878,6.543,5.102c2.755,1.608,6.681,1.455,9.021-0.83c1.112-1.086,1.882-2.756,1.3-4.198
				c-0.429-1.063-1.463-1.729-2.377-2.421c-4.003-3.032-6.397-7.516-8.849-11.78c-0.595-1.035-8.255-13.467-6.659-13.952
				c-1.991,0.605-3.978,1.224-5.961,1.858c-6.832,2.185-13.72,4.961-17.801,11.209C42.331,309.325,41.064,312.623,40.279,316.065z"
				/>
			<path style="fill:none;stroke:#222221;stroke-linecap:round;stroke-linejoin:round;stroke-miterlimit:10;" d="M69.221,322.482
				c-0.658-1.806-1.093-3.693-1.291-5.605"/>
			<path style="fill:none;stroke:#222221;stroke-linecap:round;stroke-linejoin:round;stroke-miterlimit:10;" d="M75.788,326.131
				c1.862,0.987,4.006,1.433,6.107,1.271c1.099-0.085,2.229-0.354,3.078-1.056c1.606-1.329,1.718-3.854,0.858-5.754
				c-0.861-1.899-2.467-3.336-3.976-4.774c-5.432-5.176-10.233-11.257-12.609-18.373"/>
			<path style="fill:none;stroke:#222221;stroke-linecap:round;stroke-linejoin:round;stroke-miterlimit:10;" d="M68.83,356.647
				c-3.638-11.898-5.98-23.434-7.625-35.767"/>
			<path style="fill:none;stroke:#222221;stroke-linecap:round;stroke-linejoin:round;stroke-miterlimit:10;" d="M63.342,361.424
				c-5.819-14.459-8.007-23.589-9.758-39.077"/>
			<path style="fill:none;stroke:#222221;stroke-linecap:round;stroke-linejoin:round;stroke-miterlimit:10;" d="M55.292,362.339
				c-5.25-12.183-7.875-23.845-9.96-36.946"/>
		</g>
		<g>
			<path style="fill:#6B2D4A;" d="M154.148,408.87c4.462-0.125,8.501,0.116,12.962-0.022c1.916-0.059,7.676,0.22,9.503-0.309
				c0.477-0.138,1.195-1.825-0.773-1.575c-5.765,0.731,9.449-11.149,2.537-14.033c-2.001-0.835-4.245-0.907-6.4-0.667
				c-3.195,0.357-5.781,0.333-8.567,1.937c-1.969,1.133-4.314,3.603-6.409,4.482c-3.041,1.277-6.433,1.312-9.724,1.531
				c-6.106,0.405-12.164,1.508-18.022,3.275c-4.767,1.438-9.301,2.132-13.361,5.05L154.148,408.87z"/>
			<path d="M224.909,409.079h9.635c0.756,0,1.63,0.087,2.562,0.197h8.388c0.275-0.104,0.541-0.221,0.784-0.368
				c1.459-0.884,1.961-2.817,1.75-4.509c-0.45-3.606-3.508-6.469-6.93-7.694c-3.422-1.224-7.165-1.099-10.787-0.801
				c-3.622,0.298-7.287,0.753-10.869,0.142c-0.7-0.119-1.426-0.278-2.108-0.082c-0.466,0.134-0.87,0.426-1.243,0.736
				c-2.257,1.882-5.304,6.229-3.36,9.124c0.697,1.038,1.676,1.885,2.803,2.426c1.104,0.53,2.303,0.751,3.529,0.83h2.685
				c0.222-0.01,0.444-0.019,0.664-0.03C223.245,409.048,224.077,409.07,224.909,409.079z"/>
			<path style="fill:#F7C85C;" d="M317.485,403.144c1.673,0.767,3.331,1.969,4.402,3.514c0.614,0.886,0.912,2.066,0.49,3.058
				c-1.381,3.25-10.184,2.713-12.94,2.631c-3.317-0.099-6.808-0.298-9.807-1.82c-2.716-1.379-3.335-3.825-5.322-5.938
				c-0.49-0.522-1.075-0.954-1.523-1.513c-1.072-1.339-1.205-3.176-1.292-4.889c-0.252-4.942-0.459-10.125,1.689-14.582
				c1.206-2.503,3.11-4.637,5.337-6.298c1.641-1.224,3.702-2.237,5.678-1.701c6.148,1.667,3.635,12.456,4.312,16.791
				c0.384,2.46,1.171,4.94,2.816,6.809c1.506,1.712,3.583,2.735,5.601,3.711c1.672,0.808,4.305,1.352,5.085,3.271
				c0.578,1.424-0.223,3.248-1.662,3.786"/>
			<path style="fill:#FFFFFF;" d="M365.897,258.663c-0.366,6.176-22.091,10.269-47.603,8.757
				c-25.512-1.512-45.15-8.058-44.784-14.234c0.366-6.176,21.345-9.956,46.856-8.443
				C345.878,246.255,366.263,252.487,365.897,258.663z"/>
			<path style="fill:none;stroke:#000000;stroke-linecap:round;stroke-linejoin:round;stroke-miterlimit:10;" d="M314.325,291.301
				c2.01,2.303,4.987,3.801,8.044,3.784c3.056-0.018,6.114-1.647,7.623-4.304"/>
			<path style="fill:#6B2D4A;" d="M163.291,400.714c-4.447-12.403,8.749-33.47,17.232-43.076
				c13.895-15.734,31.606-28.074,51.179-35.659c18.611-7.212,40.109-11.004,52.91-26.317c4.365-5.222,7.367-11.561,8.715-18.228
				c1.383-6.84,0.735-13.865,2.161-20.685c0.869-4.158,2.642-8.235,5.696-11.186c3.1-2.995,7.323-4.631,11.59-5.241
				c4.267-0.61,8.611-0.265,12.89,0.257c3.644,0.445,7.461,1.098,10.314,3.407c2.192,1.774,3.575,4.344,4.755,6.905
				c1.803,3.914,3.287,8.08,3.346,12.389c0.075,5.479-2.137,10.688-3.982,15.847c-2.807,7.852-1.976,14.94-2.14,23.064
				c-0.174,8.607-0.621,17.216-1.604,25.771c-0.807,7.027-1.816,14.195-3.678,21.031c-1.733,6.363-6.409,12.24-10.095,17.629
				c-4.68,6.842-9.502,13.696-15.7,19.201c-6.197,5.504-13.973,9.615-22.255,9.95c-10.264,0.415-20.013-4.052-30.242-3.909
				c-7.785,0.109-12.865,3.537-17.862,9.144c-1.544,1.732-3.088,3.464-4.632,5.196c-0.767,0.861-1.563,1.744-2.603,2.243
				c-1.08,0.518-2.317,0.571-3.514,0.607c-12.701,0.387-25.588,0.442-38.293-0.426C179.603,408.089,166.498,409.651,163.291,400.714
				z"/>
			<g>
				<path style="fill:#C75F38;" d="M263.696,300.74C263.708,300.757,263.709,300.758,263.696,300.74L263.696,300.74z"/>
				<path style="fill:#C75F38;" d="M264.906,299.639c-0.01,0-0.02,0-0.03,0c-0.002,0-0.002,0-0.004,0
					c-0.057,0.012-0.111,0.023-0.166,0.032C264.745,299.674,264.831,299.666,264.906,299.639z"/>
				<path style="fill:#C75F38;" d="M265.557,299.649c-0.007-0.002-0.009-0.002-0.015-0.003c-0.025-0.002-0.046-0.004-0.067-0.005
					c0.048,0.014,0.12,0.031,0.174,0.034C265.619,299.666,265.589,299.656,265.557,299.649z"/>
			</g>
			<g>
				<path style="fill:#E05C41;" d="M339.288,311.469c-0.146-1.147,0.107-3.659-1.396-4.084c-0.64,2.188-0.856,4.512-1.812,6.582
					c-2.223,4.814-8.321,6.811-13.123,8.091c-5.801,1.547-11.848,1.939-17.825,2.111c-3.002,0.086-6.028,0.128-8.982-0.409
					c-6.81-1.237-13.274-5.888-17.633-11.211c-0.906-1.106-4.293-5.855-3.564-7.202c0.983-1.751,0.937-1.964,2.221-3.743
					c1.692-2.344,2.625-5.436,2.234-8.322c-0.419-3.098-3.152-5.938-6.487-5.068c-3.029,0.79-3.86,3.814-4.222,6.55
					c-1.291-1.045-2.855-1.709-4.587-1.737c-2.595-0.042-5.636,1.57-6.193,4.298c-0.554,2.716,1.503,5.561,3.492,7.207
					c1.429,1.183,3.17,2.018,4.775,2.934c2.643,1.508,3.056,0.891,4.567,3.96c1.42,2.885,2.742,5.821,3.987,8.786
					c2.489,5.932,4.639,12.006,6.434,18.183c1.993,6.859,2.826,13.885,2.889,20.992c0.074,8.307-2.178,16.712-2.364,25.071
					c-0.085,3.81-0.169,7.62-0.254,11.43c-0.014,0.647,8.983-0.716,9.771-0.918c3.386-0.869,6.621-2.303,9.531-4.241
					c5.779-3.848,10.771-8.553,14.974-14.086c5.49-7.226,10.884-13.863,14.682-22.234c2.634-5.803,4.607-11.907,5.855-18.156
					c1.211-6.062,2.934-12.505,3.233-18.84C339.585,315.416,339.538,313.43,339.288,311.469z M267.421,302.924
					c-0.234-0.108-0.466-0.22-0.696-0.337c-0.452-0.23-0.895-0.478-1.322-0.751c-0.189-0.121-0.375-0.246-0.557-0.376
					c-0.055-0.04-0.116-0.085-0.176-0.129c-0.014-0.013-0.012-0.011-0.03-0.027c-0.339-0.295-0.674-0.59-0.982-0.919
					c-0.11-0.117-0.279-0.271-0.379-0.421c-0.004-0.006-0.005-0.011-0.01-0.018c-0.064-0.091-0.128-0.181-0.19-0.274
					c-0.123-0.185-0.238-0.375-0.345-0.569c-0.053-0.097-0.105-0.196-0.154-0.295c-0.041-0.083-0.29-0.431-0.09-0.184
					c0.035,0.043,0.051,0.063,0.061,0.077c-0.02-0.028-0.061-0.089-0.077-0.143c-0.003-0.009-0.048-0.126-0.081-0.229
					c0.02-0.039,0.04-0.076,0.058-0.109c0.004-0.004,0.002-0.002,0.007-0.006c0.076-0.07,0.152-0.143,0.226-0.216
					c0.041-0.027,0.083-0.055,0.125-0.081c0.072-0.043,0.146-0.081,0.219-0.121c0.156-0.033,0.349-0.122,0.485-0.154
					c0.012-0.003,0.033-0.005,0.049-0.008c-0.047-0.003-0.026-0.02,0.166-0.032c0.03-0.006,0.065-0.011,0.082-0.021
					c-0.015,0.008-0.031,0.014-0.048,0.021c0.168-0.009,0.336-0.012,0.503-0.004c-0.008,0,0.025,0.002,0.067,0.005
					c-0.06-0.018-0.071-0.029,0.066,0.005c0.082,0.006,0.171,0.013,0.17,0.014c-0.003,0.014-0.03,0.017-0.063,0.015
					c0.165,0.043,0.328,0.09,0.492,0.136c0.032,0.009,0.04,0.007,0.06,0.01c0.075,0.043,0.149,0.092,0.195,0.117
					c0.169,0.092,0.324,0.201,0.486,0.302c0.058,0.046,0.123,0.094,0.155,0.122c0.159,0.142,0.312,0.293,0.457,0.449
					c0.071,0.077,0.137,0.158,0.208,0.236c0.258,0.405,0.491,0.806,0.715,1.23c0.048,0.139,0.103,0.276,0.149,0.415
					c0.091,0.277,0.168,0.557,0.234,0.841c0.058,0.246,0.145,0.537,0.158,0.796c0.001,0.013,0.002,0.02,0.003,0.036
					c0.016,0.162,0.032,0.324,0.044,0.486c0.008,0.102,0.001,0.205,0.007,0.307C267.762,303.073,267.498,302.96,267.421,302.924z
					 M273.098,299.481c-0.054,0.069-0.112,0.136-0.167,0.204c0.011-1.283,0.077-2.568,0.203-3.828c0.08-0.799,0.109-1.2,0.278-1.917
					c0.06-0.252,0.124-0.533,0.227-0.772c-0.075,0.174,0.225-0.298,0.212-0.325c0.052-0.056,0.105-0.11,0.16-0.163
					c0.018-0.01,0.045-0.026,0.079-0.048c0.007-0.002,0.019-0.006,0.027-0.008c0.016,0.004,0.026,0.006,0.044,0.011
					c-0.013-0.007-0.016-0.01-0.027-0.016c0.003-0.001,0.008-0.002,0.011-0.003c0.031,0.016,0.061,0.032,0.107,0.057
					c0.065,0.042,0.109,0.071,0.143,0.092c0.083,0.077,0.161,0.16,0.236,0.245c-0.013,0.023,0.156,0.36,0.167,0.398
					c-0.011-0.038,0.111,0.526,0.121,0.509c0.074,0.61,0.013,1.337-0.083,1.773c-0.29,1.324-0.691,2.298-1.464,3.41
					C273.379,299.092,273.136,299.424,273.098,299.481z"/>
				<path style="fill:#E05C41;" d="M257.646,371.146c-1.527-5.548-3.459-11.59-3.06-17.417c0.006-0.092,0.013-0.183,0.021-0.275
					c0.081-0.996,0.229-2.001,0.084-2.99c-0.105-0.72-0.362-1.408-0.631-2.084c-1.904-4.791-4.824-8.788-7.28-13.258
					c-0.733-1.335-6.788-14.368-5.667-15.086c2.029-1.3,3.75-2.968,5.121-4.955c1.352-1.959,2.512-4.443,2.611-6.855
					c0.054-1.324-0.362-2.689-1.322-3.63c-1.159-1.136-2.953-1.385-4.45-0.85c-2.292,0.819-4.101,2.771-5.256,4.892
					c-0.901-1.645-2.183-3.038-4.03-3.936c-1.637-0.796-3.449-0.875-4.833,0.468c-1.1,1.068-1.595,2.619-1.748,4.106
					c-0.265,2.574,0.778,5.237,2.153,7.366c1.567,2.427,3.78,4.541,6.657,5.24c0.286,0.07,0.577,0.081,0.858,0.046
					c0.05-0.006,3.27,12.101,3.453,13.208c0.516,3.127-0.714,8.023-2.835,10.55c-1.506,1.793-3.792,2.732-6.052,3.345
					c-3.019,0.819-6.163,1.177-9.289,1.057c-2.542-0.098-5.329-0.655-6.881-2.671c-1.817-2.361-1.983-6.478-2.343-9.33
					c-0.226-1.792-0.453-3.584-0.679-5.375c-0.025-0.201-0.05-0.41,0.008-0.604c0.1-0.334,0.417-0.548,0.706-0.742
					c4.192-2.824,7.3-8.209,7.276-13.341c-0.008-1.763-0.799-3.468-2.401-4.313c-1.602-0.845-3.437-0.685-5.013,0.128
					c-2.801,1.446-4.238,4.727-4.783,7.672c-0.076,0.412-0.116,0.832-0.177,1.247c-1.225-2.003-2.909-3.893-5.013-4.799
					c-1.611-0.694-3.37-0.79-4.954,0.051c-1.587,0.843-2.389,2.523-2.399,4.276c-0.017,2.973,1.727,5.62,3.735,7.665
					c1.432,1.46,3.018,2.762,4.688,3.94c0.617,0.435,2.176,1.049,2.555,1.666c0.462,0.751-0.051,0.664,0.078,1.426
					c1.111,6.553-4.86,9.496-10.465,9.873c-1.534,0.103-3.088-0.062-4.602,0.203c-0.415,0.072-0.793,0.211-1.155,0.378
					c-0.088-0.275-0.177-0.541-0.258-0.782c-0.436-1.301-1.014-2.583-1.809-3.706c-1.62-2.289-3.982-4.013-6.804-4.411
					c-2.688-0.379-6.276,0.492-7.103,3.468c-0.837,3.013,1.973,5.662,4.441,6.77c0.467,0.21,0.951,0.38,1.439,0.539
					c-0.127,0.019-0.255,0.036-0.382,0.055c-2.935,0.438-6.052,1.184-8.102,3.504c-1.876,2.123-2.81,5.732-0.531,7.957
					c1.172,1.144,2.911,1.42,4.465,1.075c2.281,0,4.057-2.088,5.338-3.728c1.257-1.61,2.557-4.98,4.553-5.713
					c0.764-0.281,1.596-0.293,2.409-0.331c6.675-0.312,14.915-2.961,20.283,2.461c1.341,1.355,2.411,2.951,3.45,4.549
					c5.418,8.333,0.898,20.54-6.78,25.993c-0.112,0.079-0.223,0.141-0.333,0.188c-1.027,0.439-2.25,2.258-3.181,3
					c-1.222,0.973-2.519,1.847-3.82,2.708c-1.959,1.296-3.686,2.213-5.852,3.035c3.144,0.385,6.561,0.039,9.762,0.189
					c3.722,0.175,7.438,0.488,11.137,0.938c2.49,0.303,5.087,0.715,7.1,2.21c1.936,1.438,2.705,3.696,2.261,6.037
					c-0.215,1.13-0.678,2.21-1.275,3.19c-0.472,0.776-1.227,1.513-1.326,2.441c4.787,0,8.622,0.671,12.556-2.631
					c1.92-1.611,3.529-3.561,5.398-5.232c3.352-2.997,7.127-4.504,11.364-5.757c4.29-1.269,8.165-3.16,12.787-3.056
					C262.143,392.416,258.076,372.709,257.646,371.146z M234.94,316.277c-0.88-0.799-1.297-1.351-1.903-2.361
					c-0.596-0.993-0.954-1.773-1.204-2.906c-0.011-0.049-0.069-0.452-0.082-0.497c-0.019-0.241-0.015-0.48-0.019-0.721
					c-0.003-0.172,0.104-0.602,0.187-0.887c0.103,0.054,0.208,0.107,0.302,0.165c0.093,0.058,0.139,0.083,0.167,0.096
					c0.02,0.024,0.056,0.062,0.138,0.14c0.797,0.751,1.128,1.237,1.678,2.279c0.145,0.276,0.068,0.103,0.205,0.476
					c0.111,0.302,0.209,0.608,0.296,0.918c0.16,0.572,0.287,1.156,0.378,1.743c0.089,0.579,0.14,1.193,0.178,1.813
					C235.152,316.451,235.041,316.369,234.94,316.277z M204.047,328.204c-0.837-0.728-1.65-1.488-2.373-2.332
					c-0.076-0.088-0.15-0.177-0.224-0.267c-0.013-0.015-0.061-0.081-0.098-0.13c-0.123-0.172-0.245-0.345-0.359-0.523
					c-0.143-0.223-0.277-0.452-0.4-0.686c-0.053-0.1-0.102-0.201-0.153-0.302c-0.026-0.051-0.042-0.083-0.055-0.107
					c0.003,0,0.001-0.016-0.017-0.071c-0.071-0.212-0.141-0.423-0.196-0.64c-0.023-0.093-0.079-0.494-0.091-0.498
					c-0.012-0.18-0.022-0.361-0.012-0.541c0.004-0.028,0.008-0.054,0.014-0.083c0.002-0.001,0.003-0.001,0.005-0.003
					c0.059,0.044,0.141,0.056,0.115-0.038c0.065-0.017,0.13-0.034,0.193-0.052c-0.296,0.086-0.128,0.048,0.057,0.032
					c-0.129,0.027,0.591,0.142,0.313,0.036c0.221,0.085,0.436,0.219,0.636,0.345c0.118,0.074,0.238,0.155,0.352,0.239
					c0.016,0.014,0.029,0.026,0.063,0.055c0.454,0.388,0.877,0.813,1.267,1.266c0.051,0.06,0.396,0.499,0.237,0.285
					c0.166,0.224,0.324,0.455,0.476,0.689c0.305,0.469,0.584,0.956,0.839,1.455c0.146,0.286,0.283,0.576,0.415,0.868
					c0.019,0.041,0.026,0.056,0.035,0.075c0.069,0.167,0.135,0.335,0.199,0.503c0.239,0.63,0.451,1.271,0.633,1.921
					c0.001,0.001,0.001,0.003,0.001,0.005C205.281,329.224,204.654,328.732,204.047,328.204z M179.317,345.188
					c-0.065-0.041-0.519-0.363-0.431-0.292c-0.347-0.279-0.719-0.685-0.864-0.921c-0.186-0.303-0.356-0.649-0.368-0.885
					c-0.028-0.54,0.013-0.221,0.005-0.169c0.005-0.03,0.06-0.149,0.063-0.16c0.056-0.106,0.09-0.137,0.275-0.291
					c-0.13,0.108,0.281-0.173,0.346-0.208c0.016-0.009,0.157-0.076,0.22-0.108c0.055-0.018,0.167-0.06,0.156-0.056
					c0.532-0.157,0.861-0.228,1.297-0.239c0.828-0.022,1.781,0.171,2.522,0.521c0.926,0.437,1.568,0.924,2.25,1.669
					c0.692,0.756,1.295,1.772,1.696,2.733c0.136,0.326,0.26,0.696,0.375,1.067c-1.403-0.618-2.923-0.982-4.398-1.389
					c-0.943-0.26-1.782-0.529-2.553-0.934C179.707,345.42,179.51,345.308,179.317,345.188z M179.506,355.132
					c-0.802,0.779-1.638,1.526-2.507,2.23c-0.696,0.564-1.542,1.213-2.459,1.273c-1.763,0.117-1.274-2.004-0.644-2.969
					c1.077-1.65,3.127-2.289,4.955-2.664c1.026-0.211,2.066-0.356,3.104-0.502C181.179,353.414,180.367,354.296,179.506,355.132z
					 M212.444,322.728c0.262-1.414,0.604-2.709,1.421-3.832c0.258-0.355,0.691-0.818,1.143-1.049
					c0.024-0.012,0.345-0.122,0.408-0.152c0.07-0.012,0.132-0.018,0.173-0.01c0.002,0.038,0.109,0.164,0.095,0.074
					c-0.009-0.062-0.009,0.284-0.011,0.405c-0.013,0.667-0.168,1.326-0.355,2.031c-0.395,1.494-1.045,2.839-1.884,4.134
					c-0.433,0.668-0.899,1.312-1.375,1.95C212.128,325.056,212.235,323.853,212.444,322.728z M240.484,314.611
					c0.151-0.702,0.333-1.397,0.564-2.077c0.074-0.218,0.152-0.435,0.239-0.648c0.026-0.051,0.182-0.399,0.201-0.438
					c0.26-0.53,0.562-1.031,0.889-1.521c0.161-0.241,0.096-0.152,0.336-0.426c0.192-0.219,0.393-0.429,0.605-0.629
					c0.3-0.281,0.536-0.512,0.96-0.713c-0.002,0.077-0.004,0.154-0.01,0.23c0,0.003-0.001,0.003-0.001,0.006
					c-0.052,0.262-0.119,0.518-0.196,0.773c-0.322,1.076-0.609,1.716-1.236,2.766c-0.656,1.099-1.464,2.051-2.385,2.887
					C240.463,314.752,240.469,314.681,240.484,314.611z"/>
			</g>
			<path style="fill:#F7C85C;" d="M310.479,271.794c-0.923,1.862-1.607,3.551-1.793,3.929c-0.721,1.461-1.65,2.82-2.75,4.022
				c0.284-0.31-3.979-5.014-4.279-5.911c-0.686-2.053-1.114-4.347-2.706-5.813c-0.248-0.228-0.614-0.438-0.901-0.261
				c-0.198,0.123-0.259,0.378-0.295,0.608c-0.439,2.812,0.391,5.797,2.216,7.979c1.369,1.637,3.255,2.831,4.391,4.638
				c1.437,2.286,1.199,5.087,2.357,7.439c1.072,2.174,4.186,2.303,6.462,2.631c4.966,0.715,10.002,0.949,15.013,0.695
				c1.083-0.055,2.201-0.142,3.16-0.649c2.72-1.437,1.471-5.077,1.646-7.484c0.171-2.351,1.544-3.23,3.107-4.899
				c0.086-0.091,0.174-0.188,0.204-0.31c0.057-0.228-0.107-0.447-0.26-0.626c-2.02-2.364-3.955-4.87-5.287-7.696
				c-0.635-1.348-1.249-2.86-1.43-4.352c-0.133-1.099,0.521-3.063-0.118-3.991c-0.396-0.576-1.318-0.547-1.863-0.111
				c-0.546,0.436-0.796,1.138-0.974,1.813c-0.491,1.859-0.983,4.729-0.35,6.591c0.604,1.78,2.182,3.321,2.857,5.153
				c0.606,1.644,0.301,3.54-0.575,5.057c-1.357,2.35-4.082,3.827-6.794,3.727c-2.255-0.084-5.784-1.606-6.389-4.054
				c-0.597-2.414-0.018-6.512,1.161-8.666c0.99-1.81,0.46-4.681,0.044-6.668c-0.227-1.085-0.664-2.196-1.558-2.85
				c-0.299-0.219-0.713-0.377-1.029-0.185c-0.172,0.104-0.275,0.291-0.358,0.474c-0.584,1.282-0.572,2.741-0.692,4.145
				C312.513,268.315,311.41,269.916,310.479,271.794z"/>
			<path style="fill:#F7C85C;" d="M308.168,258.891c0.929,0.477,2.318,1.059,3.214,0.154c0.637-0.643,0.369-1.554-0.283-2.071
				c-0.98-0.776-2.09-0.832-3.269-0.63c-0.292,0.05-0.601,0.108-0.819,0.309c-0.366,0.336-0.318,0.958-0.032,1.364
				C307.266,258.422,307.725,258.664,308.168,258.891z"/>
			<path style="fill:#F7C85C;" d="M331.576,258.195c-0.143,0.009-0.28,0.03-0.404,0.08c-0.951,0.385-1.415,1.723-2.579,1.226
				c-1.179-0.503-0.893-1.925-0.167-2.675c0.995-1.028,2.717-1.253,3.943-0.515c0.265,0.159,0.513,0.366,0.654,0.642
				c0.14,0.276,0.152,0.631-0.029,0.882C332.66,258.293,332.083,258.164,331.576,258.195z"/>
			<path style="fill:#6B2D4A;" d="M285.473,252.438c-2.733,2.1-4.58,4.368-4.068,9.118c0.306,2.843,1.168,5.595,1.628,8.417
				c0.809,4.975,0.501,10.513,3.621,14.47c3.385,4.293,6.243-1.68,7.191-4.586c1.234-3.786,1.21-8.005-0.237-11.729
				c-0.254-0.653-0.549-1.298-0.664-1.99c-0.129-0.781-0.02-1.584,0.183-2.349c1.718-6.471,12.792-10.943,8.93-18.501
				c-2.243-4.391-10.041,2.335-12.116,3.923C288.355,250.427,286.808,251.413,285.473,252.438z"/>
			<path style="fill:#6B2D4A;" d="M339.799,267.753c0.384-4.411,1.795-8.773,1.349-13.178c-0.411-4.057-2.994-6.165-5.504-9.189
				c-0.201-0.242-0.413-0.516-0.402-0.83c0.014-0.386,0.377-0.686,0.756-0.761c0.379-0.075,0.768,0.022,1.141,0.119
				c3.202,0.831,5.992,1.709,7.59,4.671c1.689,3.131,3.143,6.451,4.984,9.516c4.035,6.719,7.943,10.43,2.708,18.315
				c-2.495,3.758-5.959,6.828-8.227,10.728c-0.455,0.782-0.907,1.643-1.714,2.051c-1.502,0.761-3.315-0.509-4.058-2.019
				c-1.112-2.26-0.814-4.961-0.124-7.384C339.607,275.188,339.4,272.336,339.799,267.753z"/>
			<path d="M315.208,280.141c0.047-3.948,7.603-3.571,10.012-3.308c3.832,0.418,4.107,5.475,1.444,7.596
				c-0.524,0.417-1.161,0.661-1.792,0.885c-1.906,0.678-4.05,1.229-5.906,0.425c-1.964-0.851-3.712-3.343-3.757-5.493
				C315.208,280.211,315.207,280.176,315.208,280.141z"/>
			<path style="fill:#6B2D4A;" d="M255.327,360.409c0.723,3.796,2.338,8.364,3.254,12.118c2.576,10.563,3.809,24.059,4.371,35.008
				c0.053,1.039,0.269,2.094,0.786,2.996c0.983,1.717,3.037,2.479,4.962,2.934c4.627,1.092,9.495,1.154,14.148,0.182
				c0.868-0.181,1.773-0.422,2.405-1.043c0.947-0.931,1.007-2.475,0.576-3.731c-0.431-1.256-1.26-2.329-1.931-3.475
				c-2.361-4.031-2.734-8.893-2.867-13.564c-0.212-7.456,0.213-14.914,0.991-22.328c0.658-6.274,3.632-15.091,0.659-21.09
				c-0.555-1.121-1.358-2.098-2.164-3.054c-3.742-4.436-9.464-7.205-15.297-5.255c-2.62,0.876-4.816,2.687-6.822,4.587
				c-1.494,1.416-2.952,2.949-3.761,4.842C253.43,352.361,254.76,357.429,255.327,360.409z"/>
			<path style="fill:none;stroke:#000000;stroke-linecap:round;stroke-linejoin:round;stroke-miterlimit:10;" d="M210.042,379.184
				c-4.822,7.178-12.12,11.698-19.666,15.405c6.443-0.518,12.98-0.092,19.441-0.092"/>
			<path style="fill:none;stroke:#000000;stroke-linecap:round;stroke-linejoin:round;stroke-miterlimit:10;" d="M202.77,351.487
				c6.506,2.206,10.712,8.493,11.08,15.243"/>
			<path style="fill:#F7C85C;" d="M277.967,385.757c-1.595,1.427-2.566,3.629-4.254,5.026c-1.405,1.163-3.213,1.692-4.962,2.209
				c-1.749,0.517-3.553,1.083-4.914,2.297c-2.926,2.608-1.275,8.825-0.886,12.246c0.117,1.034,0.269,2.094,0.786,2.996
				c0.983,1.717,3.037,2.479,4.962,2.934c4.627,1.092,9.495,1.154,14.148,0.182c0.868-0.181,1.773-0.422,2.405-1.043
				c0.947-0.931,1.007-2.475,0.576-3.731c-0.431-1.256-1.26-2.329-1.931-3.475c-2.361-4.031-2.734-8.893-2.867-13.564
				c-0.056-2.113,0.183-3.99-0.107-6.1c-0.041-0.299-0.093-0.621-0.308-0.833c-0.355-0.352-0.955-0.223-1.403-0.001
				C278.752,385.129,278.343,385.421,277.967,385.757z"/>
			<path style="fill:none;stroke:#000000;stroke-linecap:round;stroke-linejoin:round;stroke-miterlimit:10;" d="M293.22,394.031
				c6.208-2.806,15.961-7.617,20.627-15.234"/>
			<path style="fill:none;stroke:#000000;stroke-linecap:round;stroke-linejoin:round;stroke-miterlimit:10;" d="M274.892,414.243
				c0.188-2.43-0.393-4.915-1.64-7.009"/>
			<path style="fill:none;stroke:#000000;stroke-linecap:round;stroke-linejoin:round;stroke-miterlimit:10;" d="M282.811,413.339
				c-0.447-2.65-1.665-5.164-3.466-7.158"/>
			<path style="fill:none;stroke:#000000;stroke-linecap:round;stroke-linejoin:round;stroke-miterlimit:10;" d="M313.365,405.289
				c3.03-0.014,5.998,1.792,7.379,4.489c0.34,0.663-0.059,1.095,0.083,1.827"/>
			<path style="fill:none;stroke:#000000;stroke-linecap:round;stroke-linejoin:round;stroke-miterlimit:10;" d="M313.595,412.702
				c0.011-2.539-1.907-4.957-4.382-5.523"/>
			<path style="fill:none;stroke:#000000;stroke-linecap:round;stroke-linejoin:round;stroke-miterlimit:10;" d="M294.513,404.811
				c0.315-0.836,0.471-1.733,0.456-2.626"/>
			<path style="fill:none;stroke:#000000;stroke-linecap:round;stroke-linejoin:round;stroke-miterlimit:10;" d="M281.124,396.586
				c-0.957-12.192,2.219-24.007,2.952-36.09"/>
			<path style="fill:none;stroke:#000000;stroke-linecap:round;stroke-linejoin:round;stroke-miterlimit:10;" d="M258.037,370.525
				c-2.113-7.136-7.007-17.829-1.862-24.762"/>
			<path style="fill:none;stroke:#000000;stroke-linecap:round;stroke-linejoin:round;stroke-miterlimit:10;" d="M262.384,393.333
				c0.126-3.99-1.778-9.127-2.46-13.06"/>
			<path style="fill:none;stroke:#000000;stroke-linecap:round;stroke-linejoin:round;stroke-miterlimit:10;" d="M294.741,263.333
				c-0.094-5.173,1.203-10.364,3.718-14.886"/>
			<path style="fill:none;stroke:#000000;stroke-linecap:round;stroke-linejoin:round;stroke-miterlimit:10;" d="M340.837,248.834
				c1.456,4.059,2.639,8.267,2.793,12.576c0.174,4.846-1.233,8.91-3.648,13.034c-0.653,1.115-1.365,2.57-2.209,3.543
				c-1.1,1.267-2.646,1.844-3.381,3.477c-1.316,2.922,0.249,7.28-2.651,9.49c-1.094,0.834-2.561,0.947-3.936,0.988
				c-3.421,0.102-6.813-0.405-10.2-0.286c-2.278,0.079-4.599,0.153-6.792-0.467c-4.353-1.229-4.551-3.854-5.737-7.526
				c-0.501-1.551-1.573-2.85-2.707-4.021c-1.134-1.172-2.362-2.269-3.293-3.608c-0.93-1.339-1.548-2.989-1.267-4.595"/>
			<path style="fill:none;stroke:#000000;stroke-linecap:round;stroke-linejoin:round;stroke-miterlimit:10;" d="M333.145,287.566
				c0.067-2.907-0.451-5.827-1.513-8.533c-0.772-1.967-1.852-3.983-1.506-6.068"/>
			<path style="fill:none;stroke:#000000;stroke-linecap:round;stroke-linejoin:round;stroke-miterlimit:10;" d="M305.512,283.923
				c0.222-4.627,2.951-8.325,4.829-12.375"/>
			<path style="fill:none;stroke:#000000;stroke-linecap:round;stroke-linejoin:round;stroke-miterlimit:10;" d="M321.944,291.522
				c-0.136-2.435-0.271-4.87-0.407-7.306"/>
			<path style="fill:none;stroke:#000000;stroke-linecap:round;stroke-linejoin:round;stroke-miterlimit:10;" d="M167.11,406.108
				c-3.829-2.427-4.252-8.547-4.526-13.072"/>
			<path d="M330.879,293.29c-1.707,0.625-2.842,2.321-4.707,2.676c-1.506,0.287-3.027-0.385-4.56-0.4
				c-1.76-0.017-3.401,0.823-4.959,1.643c-0.544,0.286-1.775,1.192-1.02,1.902c0.182,0.171,0.448,0.209,0.695,0.244
				c2.181,0.31,4.299,1.051,6.198,2.166c1.559,0.915,2.998,2.093,4.723,2.635c2.036,0.64,4.241,0.322,6.332-0.107
				c1.451-0.298,3.04-0.748,3.821-2.006c0.866-1.394,0.367-3.03,0.383-4.553c0.015-1.424,0.469-2.741,0.212-4.211
				C335.904,292.906,332.938,292.539,330.879,293.29z"/>
			<path style="fill:none;stroke:#000000;stroke-linecap:round;stroke-linejoin:round;stroke-miterlimit:10;" d="M333.791,297.985"
				/>
			<path style="fill:none;stroke:#FFFFFF;stroke-linecap:round;stroke-linejoin:round;stroke-miterlimit:10;" d="M273.595,254.033
				l14.869,36.144c16.528,8.959,33.121,12.073,49.505,6.676l27.264-36.256C354.265,272.094,279.46,268.54,273.595,254.033z"/>
			<path style="fill:none;stroke:#000000;stroke-linecap:round;stroke-linejoin:round;stroke-miterlimit:10;" d="M294.146,269.353
				c1.672,4.908,0.744,10.622-2.394,14.749"/>
			<path style="fill:none;stroke:#000000;stroke-linecap:round;stroke-linejoin:round;stroke-miterlimit:10;" d="M219.221,408.848
				c0.287-1.42-0.43-2.903-1.515-3.862c-1.085-0.959-2.488-1.477-3.884-1.86c-2.689-0.738-5.473-1.055-8.244-1.368"/>
			<path style="fill:none;stroke:#000000;stroke-linecap:round;stroke-linejoin:round;stroke-miterlimit:10;" d="M221.148,405.462
				c-0.387-2.54-2.511-4.543-4.894-5.503c-2.383-0.96-5.013-1.059-7.581-1.114"/>
			<path style="fill:none;stroke:#000000;stroke-linecap:round;stroke-linejoin:round;stroke-miterlimit:10;" d="M186.267,351.449
				c-6.538,7.126-12.437,15.237-16.919,23.823"/>
			<path style="fill:none;stroke:#000000;stroke-linecap:round;stroke-linejoin:round;stroke-miterlimit:10;" d="M166.358,380.273
				c-0.95,1.502-1.624,3.178-1.979,4.92"/>
			<path d="M293.022,263.4c0.748-2.143,1.496-4.287,2.243-6.43c0.367-1.051,0.735-2.105,1.218-3.109
				c0.295-0.612,0.664-1.236,1.266-1.55c0.898-0.47,2.078-0.06,2.703,0.737c0.625,0.798,0.779,1.878,0.686,2.888
				c-0.24,2.597-1.902,4.809-2.924,7.209c-0.822,1.928-1.228,3.997-1.445,6.073c-0.168,1.605-0.785,4.4-0.227,5.926
				c0.149,0.408,0.399,0.776,0.521,1.193c0.256,0.874-0.081,1.819,0.059,2.718c0.088,0.563,0.359,1.083,0.468,1.643
				c0.244,1.252-0.347,2.51-1.031,3.587c-0.493,0.776-1.06,1.53-1.821,2.045c-0.762,0.515-1.752,0.762-2.619,0.457
				c-0.868-0.304-1.522-1.25-1.321-2.147c0.08-0.357,0.279-0.675,0.473-0.985c0.998-1.593,1.983-3.215,2.6-4.991
				c0.9-2.587,0.859-6.078,0.004-8.685C293.095,267.597,292.128,265.962,293.022,263.4z"/>
			<path d="M336.948,282.554c0.116-0.923,0.417-1.867,0.165-2.763c-0.071-0.254-0.249-0.537-0.512-0.521
				c-0.158,0.009-0.286,0.126-0.396,0.238c-1.603,1.631-2.542,3.896-2.562,6.182c-0.01,1.117,0.182,2.28-0.228,3.319
				c-0.175,0.443-0.456,0.845-0.574,1.307c-0.119,0.462-0.018,1.036,0.399,1.265c0.356,0.196,0.797,0.073,1.178-0.068
				c0.764-0.283,1.506-0.624,2.217-1.021C339.699,288.784,336.625,285.117,336.948,282.554z"/>
			<path d="M187.109,394.006c0.07-0.195,0.198-0.378,0.35-0.52c0.304-0.283,0.694-0.452,1.041-0.682
				c1.081-0.717,1.676-1.979,1.996-3.236c0.32-1.257,0.418-2.565,0.78-3.81c0.736-2.532,2.609-4.716,5.012-5.801
				c2.404-1.084,5.296-1.038,7.649,0.152c0.884,0.447,1.762,1.159,1.882,2.142c0.109,0.885-0.426,1.712-0.972,2.417
				c-3.445,4.453-8.52,7.357-13.441,9.933c-0.197,0.103-0.399,0.206-0.617,0.25c-0.18,0.036-0.365,0.03-0.548,0.024
				c-0.568-0.018-2.919,0.258-3.137-0.274C187.026,394.41,187.039,394.202,187.109,394.006z"/>
			<path d="M251.055,335.776c0.192,0.11,0.368,0.237,0.522,0.382c0.665,0.627,0.979,1.527,1.336,2.367
				c0.358,0.841,0.834,1.709,1.658,2.105c0.933,0.449,1.958,0.687,2.6,1.592c0.424,0.598,0.436,1.412,0.21,2.109
				c-0.226,0.697-0.66,1.305-1.089,1.9c-0.742,1.031-1.484,2.062-2.225,3.094c-1.411-5.275-4.148-9.331-7.168-13.754
				C248.059,335.083,249.869,335.099,251.055,335.776z"/>
			<g>
				<defs>
					<path id="SVGID_00000031187177867814617930000010099309011901365658_" d="M257.646,371.146
						c-1.527-5.548-3.459-11.59-3.06-17.417c0.006-0.092,0.013-0.183,0.021-0.275c0.081-0.996,0.229-2.001,0.084-2.99
						c-0.105-0.72-0.362-1.408-0.631-2.084c-1.904-4.791-4.824-8.788-7.28-13.258c-0.733-1.335-6.788-14.368-5.667-15.086
						c2.029-1.3,3.75-2.968,5.121-4.955c1.352-1.959,2.512-4.443,2.611-6.855c0.054-1.324-0.362-2.689-1.322-3.63
						c-1.159-1.136-2.953-1.385-4.45-0.85c-2.292,0.819-4.101,2.771-5.256,4.892c-0.901-1.645-2.183-3.038-4.03-3.936
						c-1.637-0.796-3.449-0.875-4.833,0.468c-1.1,1.068-1.595,2.619-1.748,4.106c-0.265,2.574,0.778,5.237,2.153,7.366
						c1.567,2.427,3.78,4.541,6.657,5.24c0.286,0.07,0.577,0.081,0.858,0.046c0.05-0.006,3.27,12.101,3.453,13.208
						c0.516,3.127-0.714,8.023-2.835,10.55c-1.506,1.793-3.792,2.732-6.052,3.345c-3.019,0.819-6.163,1.177-9.289,1.057
						c-2.542-0.098-5.329-0.655-6.881-2.671c-1.817-2.361-1.983-6.478-2.343-9.33c-0.226-1.792-0.453-3.584-0.679-5.375
						c-0.025-0.201-0.05-0.41,0.008-0.604c0.1-0.334,0.417-0.548,0.706-0.742c4.192-2.824,7.3-8.209,7.276-13.341
						c-0.008-1.763-0.799-3.468-2.401-4.313c-1.602-0.845-3.437-0.685-5.013,0.128c-2.801,1.446-4.238,4.727-4.783,7.672
						c-0.076,0.412-0.116,0.832-0.177,1.247c-1.225-2.003-2.909-3.893-5.013-4.799c-1.611-0.694-3.37-0.79-4.954,0.051
						c-1.587,0.843-2.389,2.523-2.399,4.276c-0.017,2.973,1.727,5.62,3.735,7.665c1.432,1.46,3.018,2.762,4.688,3.94
						c0.617,0.435,2.176,1.049,2.555,1.666c0.462,0.751-0.051,0.664,0.078,1.426c1.111,6.553-4.86,9.496-10.465,9.873
						c-1.534,0.103-3.088-0.062-4.602,0.203c-0.415,0.072-0.793,0.211-1.155,0.378c-0.088-0.275-0.177-0.541-0.258-0.782
						c-0.436-1.301-1.014-2.583-1.809-3.706c-1.62-2.289-3.982-4.013-6.804-4.411c-2.688-0.379-6.276,0.492-7.103,3.468
						c-0.837,3.013,1.973,5.662,4.441,6.77c0.467,0.21,0.951,0.38,1.439,0.539c-0.127,0.019-0.255,0.036-0.382,0.055
						c-2.935,0.438-6.052,1.184-8.102,3.504c-1.876,2.123-2.81,5.732-0.531,7.957c1.172,1.144,2.911,1.42,4.465,1.075
						c2.281,0,4.057-2.088,5.338-3.728c1.257-1.61,2.557-4.98,4.553-5.713c0.764-0.281,1.596-0.293,2.409-0.331
						c6.675-0.312,14.915-2.961,20.283,2.461c1.341,1.355,2.411,2.951,3.45,4.549c5.418,8.333,0.898,20.54-6.78,25.993
						c-0.112,0.079-0.223,0.141-0.333,0.188c-1.027,0.439-2.25,2.258-3.181,3c-1.222,0.973-2.519,1.847-3.82,2.708
						c-1.959,1.296-3.686,2.213-5.852,3.035c3.144,0.385,6.561,0.039,9.762,0.189c3.722,0.175,7.438,0.488,11.137,0.938
						c2.49,0.303,5.087,0.715,7.1,2.21c1.936,1.438,2.705,3.696,2.261,6.037c-0.215,1.13-0.678,2.21-1.275,3.19
						c-0.472,0.776-1.227,1.513-1.326,2.441h13.075c1.543-0.807,2.194-2.393,3.329-3.781c1.08-1.32,2.308-2.501,3.632-3.576
						c2.656-2.155,5.482-4.119,8.539-5.665c4.151-2.099,8.881-3.76,13.531-3.656C262.143,392.416,258.076,372.709,257.646,371.146z
						 M234.94,316.277c-0.88-0.799-1.297-1.351-1.903-2.361c-0.596-0.993-0.954-1.773-1.204-2.906
						c-0.011-0.049-0.069-0.452-0.082-0.497c-0.019-0.241-0.015-0.48-0.019-0.721c-0.003-0.172,0.104-0.602,0.187-0.887
						c0.103,0.054,0.208,0.107,0.302,0.165c0.093,0.058,0.139,0.083,0.167,0.096c0.02,0.024,0.056,0.062,0.138,0.14
						c0.797,0.751,1.128,1.237,1.678,2.279c0.145,0.276,0.068,0.103,0.205,0.476c0.111,0.302,0.209,0.608,0.296,0.918
						c0.16,0.572,0.287,1.156,0.378,1.743c0.089,0.579,0.14,1.193,0.178,1.813C235.152,316.451,235.041,316.369,234.94,316.277z
						 M204.047,328.204c-0.837-0.728-1.65-1.488-2.373-2.332c-0.076-0.088-0.15-0.177-0.224-0.267
						c-0.013-0.015-0.061-0.081-0.098-0.13c-0.123-0.172-0.245-0.345-0.359-0.523c-0.143-0.223-0.277-0.452-0.4-0.686
						c-0.053-0.1-0.102-0.201-0.153-0.302c-0.026-0.051-0.042-0.083-0.055-0.107c0.003,0,0.001-0.016-0.017-0.071
						c-0.071-0.212-0.141-0.423-0.196-0.64c-0.023-0.093-0.079-0.494-0.091-0.498c-0.012-0.18-0.022-0.361-0.012-0.541
						c0.004-0.028,0.008-0.054,0.014-0.083c0.002-0.001,0.003-0.001,0.005-0.003c0.059,0.044,0.141,0.056,0.115-0.038
						c0.065-0.017,0.13-0.034,0.193-0.052c-0.296,0.086-0.128,0.048,0.057,0.032c-0.129,0.027,0.591,0.142,0.313,0.036
						c0.221,0.085,0.436,0.219,0.636,0.345c0.118,0.074,0.238,0.155,0.352,0.239c0.016,0.014,0.029,0.026,0.063,0.055
						c0.454,0.388,0.877,0.813,1.267,1.266c0.051,0.06,0.396,0.499,0.237,0.285c0.166,0.224,0.324,0.455,0.476,0.689
						c0.305,0.469,0.584,0.956,0.839,1.455c0.146,0.286,0.283,0.576,0.415,0.868c0.019,0.041,0.026,0.056,0.035,0.075
						c0.069,0.167,0.135,0.335,0.199,0.503c0.239,0.63,0.451,1.271,0.633,1.921c0.001,0.001,0.001,0.003,0.001,0.005
						C205.281,329.224,204.654,328.732,204.047,328.204z M179.317,345.188c-0.065-0.041-0.519-0.363-0.431-0.292
						c-0.347-0.279-0.719-0.685-0.864-0.921c-0.186-0.303-0.356-0.649-0.368-0.885c-0.028-0.54,0.013-0.221,0.005-0.169
						c0.005-0.03,0.06-0.149,0.063-0.16c0.056-0.106,0.09-0.137,0.275-0.291c-0.13,0.108,0.281-0.173,0.346-0.208
						c0.016-0.009,0.157-0.076,0.22-0.108c0.055-0.018,0.167-0.06,0.156-0.056c0.532-0.157,0.861-0.228,1.297-0.239
						c0.828-0.022,1.781,0.171,2.522,0.521c0.926,0.437,1.568,0.924,2.25,1.669c0.692,0.756,1.295,1.772,1.696,2.733
						c0.136,0.326,0.26,0.696,0.375,1.067c-1.403-0.618-2.923-0.982-4.398-1.389c-0.943-0.26-1.782-0.529-2.553-0.934
						C179.707,345.42,179.51,345.308,179.317,345.188z M179.506,355.132c-0.802,0.779-1.638,1.526-2.507,2.23
						c-0.696,0.564-1.542,1.213-2.459,1.273c-1.763,0.117-1.274-2.004-0.644-2.969c1.077-1.65,3.127-2.289,4.955-2.664
						c1.026-0.211,2.066-0.356,3.104-0.502C181.179,353.414,180.367,354.296,179.506,355.132z M212.444,322.728
						c0.262-1.414,0.604-2.709,1.421-3.832c0.258-0.355,0.691-0.818,1.143-1.049c0.024-0.012,0.345-0.122,0.408-0.152
						c0.07-0.012,0.132-0.018,0.173-0.01c0.002,0.038,0.109,0.164,0.095,0.074c-0.009-0.062-0.009,0.284-0.011,0.405
						c-0.013,0.667-0.168,1.326-0.355,2.031c-0.395,1.494-1.045,2.839-1.884,4.134c-0.433,0.668-0.899,1.312-1.375,1.95
						C212.128,325.056,212.235,323.853,212.444,322.728z M240.484,314.611c0.151-0.702,0.333-1.397,0.564-2.077
						c0.074-0.218,0.152-0.435,0.239-0.648c0.026-0.051,0.182-0.399,0.201-0.438c0.26-0.53,0.562-1.031,0.889-1.521
						c0.161-0.241,0.096-0.152,0.336-0.426c0.192-0.219,0.393-0.429,0.605-0.629c0.3-0.281,0.536-0.512,0.96-0.713
						c-0.002,0.077-0.004,0.154-0.01,0.23c0,0.003-0.001,0.003-0.001,0.006c-0.052,0.262-0.119,0.518-0.196,0.773
						c-0.322,1.076-0.609,1.716-1.236,2.766c-0.656,1.099-1.464,2.051-2.385,2.887C240.463,314.752,240.469,314.681,240.484,314.611
						z"/>
				</defs>
				<clipPath id="SVGID_00000116946196239384463920000017654671620057312435_">
					<use xlink:href="#SVGID_00000031187177867814617930000010099309011901365658_"  style="overflow:visible;"/>
				</clipPath>
			</g>
		</g>
		<path style="fill:#A86A59;" d="M320.251,357.152c-4.606,0.126-8.333-3.138-12.512-4.54c-2.077-0.697-4.341-1.729-6.568-1.118
			c-1.437,0.394-2.719,1.674-2.684,3.163c-0.005-0.221-1.709-0.876-2.01-0.916c-0.944-0.124-1.99,0.24-2.708,0.849
			c-1.203,1.02-1.646,2.843-1.045,4.301c-2.598-0.752-4.423,2.991-4.292,5.04c0.115,1.798,0.959,3.458,1.786,5.059
			c-1.691-0.174-3.009,1.721-2.889,3.417c0.12,1.696,1.208,3.15,2.281,4.469c5.864,7.204,14.627,15.87,24.569,16.106
			c5.736,0.136,11.235-2.833,15.167-7.012c3.932-4.179,6.474-9.472,8.463-14.854c1.824-4.935,2.753-10.4,2.083-15.65
			c-0.744-5.833-4.179-10.458-6.925-15.508c-0.825-1.517-1.706-3.096-3.151-4.042c-1.445-0.946-3.632-0.999-4.705,0.354
			c-0.782,0.986-0.758,2.386-0.504,3.619c0.731,3.553,4.817,8.321,4.288,11.956C328.429,355.055,323.124,357.073,320.251,357.152z"
			/>
		<g>
			<path style="fill:none;stroke:#222221;stroke-linecap:round;stroke-linejoin:round;stroke-miterlimit:10;" d="M329.342,386.602
				c4.979-6.027,8.017-13.634,8.56-21.433"/>
			<path style="fill:none;stroke:#222221;stroke-linecap:round;stroke-linejoin:round;stroke-miterlimit:10;" d="M338.012,353.645
				c-1.122-4.7-2.863-9.253-5.174-13.496"/>
			<path style="fill:none;stroke:#222221;stroke-linecap:round;stroke-linejoin:round;stroke-miterlimit:10;" d="M326.62,368.242
				c-5.353,0.85-10.726-1.328-15.421-4.036c-5.008-2.889-9.634-6.438-13.723-10.526"/>
			<path style="fill:none;stroke:#222221;stroke-linecap:round;stroke-linejoin:round;stroke-miterlimit:10;" d="M323.279,377.848
				c-5.735-0.739-12.436-3.114-17.284-6.265c-4.848-3.151-9.263-8.499-13.589-12.337"/>
			<path style="fill:none;stroke:#222221;stroke-linecap:round;stroke-linejoin:round;stroke-miterlimit:10;" d="M320.026,384.682
				c-5.983,1.402-12.175-1.133-17.244-4.607c-4.808-3.296-8.943-6.129-12.405-10.818"/>
		</g>
		<path style="fill:none;stroke:#222221;stroke-linecap:round;stroke-linejoin:round;stroke-miterlimit:10;" d="M430.625,404.291
			c2.137-0.832,4.101-2.102,5.737-3.708"/>
		<path style="fill:none;stroke:#000000;stroke-linecap:round;stroke-linejoin:round;stroke-miterlimit:10;" d="M416.191,419.237
			c5.591-0.006,11.183-0.012,16.775-0.018"/>
		<path style="fill:none;stroke:#000000;stroke-linecap:round;stroke-linejoin:round;stroke-miterlimit:10;" d="M88.2,419.284
			c22.779,0.018,45.559,0.033,68.338,0.043"/>
		<path style="fill:none;stroke:#000000;stroke-linecap:round;stroke-linejoin:round;stroke-miterlimit:10;" d="M195.659,343.101
			c3.721-3.2,7.745-6.046,12.003-8.486"/>
		<path style="fill:none;stroke:#000000;stroke-linecap:round;stroke-linejoin:round;stroke-miterlimit:10;" d="M252.929,408.799
			c-65.519,0.299-130.572,0.299-195.781-0.223"/>
		<path style="fill:none;stroke:#000000;stroke-linecap:round;stroke-linejoin:round;stroke-miterlimit:10;" d="M293.457,408.577
			c-1.589,0.011-3.178,0.021-4.767,0.031"/>
		<path style="fill:none;stroke:#000000;stroke-linecap:round;stroke-linejoin:round;stroke-miterlimit:10;" d="M382.929,408.577
			c-19.762,0.521-38.022,0.521-57.645,0"/>
	</g>
</g>
</svg>
